<svg xmlns="http://www.w3.org/2000/svg" viewBox="0 0 45 45">
<g class="logo__brand">
    <path d="M29.900000000000006,14 c-4.7,-4.7 -12.3,-4.7 -17,0 c-4.7,4.7 -4.7,12.3 0,17 c2.3,2.3 5.4,3.5 8.5,3.5 c3.1,0 6.2,-1.2 8.5,-3.5 l2.3,-2.3 l-4,-4 l-2.3,2.3 c-2.5,2.5 -6.4,2.5 -8.9,0 c-2.5,-2.5 -2.5,-6.4 0,-8.9 c1.2,-1.2 2.8,-1.8 4.5,-1.8 c1.6,0 3.2,0.6000000000000001 4.5,1.8 v0 l8.5,8.5 l4,-4 L29.900000000000006,14 z" id="svg_2"/>
    <path d="M22.5,0 C10.099999999999994,0 0,10.1 0,22.5 S10.099999999999994,45 22.5,45 c12.4,0 22.5,-10.1 22.5,-22.5 S35,0 22.5,0 zM22.5,41 c-10.2,0 -18.5,-8.3 -18.5,-18.5 S12.400000000000006,4 22.5,4 c10.2,0 18.5,8.3 18.5,18.5 S32.69999999999999,41 22.5,41 z" id="svg_3"/>
</g>
</svg>