<?xml version="1.0" encoding="utf-8"?>
<!DOCTYPE svg PUBLIC "-//W3C//DTD SVG 1.1//EN" "http://www.w3.org/Graphics/SVG/1.1/DTD/svg11.dtd">
<svg version="1.1" xmlns="http://www.w3.org/2000/svg" xmlns:xlink="http://www.w3.org/1999/xlink" x="0px" y="0px"
	 viewBox="0 0 189.1 52.7" style="enable-background:new 0 0 189.1 52.7;" xml:space="preserve">
<g class="logo__text">
	<path d="M0,52L16,9.2H24L40,52h-8.6l-3.9-10.5H11.9L8.2,52H0z M14.5,34.2H25l-5.3-14.7L14.5,34.2z"/>
	<path d="M43.6,52V21.8h7.1v3c1.9-2.4,4.5-3.6,7.8-3.6c0.9,0,1.8,0.1,2.6,0.3s1.5,0.4,2.2,0.7c0.7,0.3,1.3,0.6,1.8,1
		c0.5,0.4,1,0.8,1.4,1.2c1.1,1.3,1.9,2.7,2.3,4.2c0.4,1.6,0.6,3.5,0.6,5.9V52H62V34.6c0-2.5-0.4-4.3-1.3-5.5
		c-0.8-1.1-2.1-1.7-3.9-1.7c-1.7,0-3.1,0.6-4.1,1.7c-1.1,1.2-1.7,3-1.7,5.4V52H43.6z"/>
	<path d="M73.5,43.3c0-2.6,0.9-4.7,2.6-6.3c1.8-1.6,4.4-2.7,8-3.3c2.2-0.4,4-0.7,5.5-1.1c1.5-0.3,2.7-0.7,3.5-1
		c0-1.6-0.3-2.7-1-3.5c-0.7-0.8-2-1.2-4.1-1.2c-2.3,0-4,0.6-4.9,1.7c-0.5,0.6-0.7,1.5-0.8,2.5h-7.5c0.1-1.9,0.5-3.5,1.2-4.8
		c2-3.5,5.9-5.2,11.9-5.2c3.8,0,6.8,0.6,8.9,1.9c1.6,1,2.6,2,3.1,3.3c0.4,1.2,0.7,2.9,0.7,5V52h-6.9v-2.7
		c-2.2,2.3-5.3,3.4-9.3,3.4c-3.2,0-5.9-0.8-7.9-2.5C74.5,48.5,73.5,46.2,73.5,43.3z M81.3,43c0,0.5,0.1,1,0.3,1.5
		c0.2,0.5,0.5,0.9,0.9,1.2c0.4,0.3,0.9,0.6,1.5,0.8c0.6,0.2,1.2,0.3,1.9,0.3c3.2,0,5.4-1.3,6.7-3.8c0.3-0.6,0.4-1.5,0.4-2.6l0-3.4
		c-1.4,0.6-3.4,1.1-6.1,1.6c-1.9,0.3-3.4,0.8-4.3,1.4C81.8,40.8,81.3,41.7,81.3,43z"/>
	<path d="M106.8,16.9V9.2h7.4v7.6H106.8z M106.8,52V21.8h7.4V52H106.8z"/>
	<path d="M117.5,27.9v-6.1h4.6v-8.5h7.3v8.5h6.2v6.1h-6.2v15.9c0,1.8,0.9,2.6,2.7,2.6c0.8,0,1.8-0.2,2.9-0.6v6.1
		c-1.6,0.4-3.2,0.6-4.7,0.6c-1.3,0-2.5-0.2-3.6-0.5c-1.1-0.3-2-0.8-2.6-1.5c-1.3-1.3-2-3.4-2-6.2V27.9H117.5z"/>
</g>
<g class="logo__figure">
	<path d="M173.9,14c-4.7-4.7-12.3-4.7-17,0c-4.7,4.7-4.7,12.3,0,17c2.3,2.3,5.4,3.5,8.5,3.5c3.1,0,6.2-1.2,8.5-3.5
		l2.3-2.3l-4-4l-2.3,2.3c-2.5,2.5-6.4,2.5-8.9,0c-2.5-2.5-2.5-6.4,0-8.9c1.2-1.2,2.8-1.8,4.5-1.8c1.6,0,3.2,0.6,4.5,1.8v0l8.5,8.5
		l4-4L173.9,14z"/>
	<path d="M166.5,0C154.1,0,144,10.1,144,22.5S154.1,45,166.5,45c12.4,0,22.5-10.1,22.5-22.5S179,0,166.5,0z M166.5,41
		c-10.2,0-18.5-8.3-18.5-18.5S156.4,4,166.5,4c10.2,0,18.5,8.3,18.5,18.5S176.7,41,166.5,41z"/>
</g>
</svg>
